<svg width="40" height="40" viewBox="0 0 40 40" fill="none" xmlns="http://www.w3.org/2000/svg">
<circle cx="20" cy="20" r="19.5" fill="#B9D6FF" stroke="#8EBAFF"/>
<path d="M26.6665 27.4999V20.8333C26.6665 20.3912 26.4909 19.9673 26.1783 19.6547C25.8658 19.3422 25.4419 19.1666 24.9998 19.1666H14.9998C14.5578 19.1666 14.1339 19.3422 13.8213 19.6547C13.5088 19.9673 13.3332 20.3912 13.3332 20.8333V27.4999" fill="#6290FF"/>
<path d="M13.3332 23.3333C13.3332 23.3333 13.7498 22.4999 14.9998 22.4999C16.2498 22.4999 17.0832 24.1666 18.3332 24.1666C19.5832 24.1666 20.4165 22.4999 21.6665 22.4999C22.9165 22.4999 23.7498 24.1666 24.9998 24.1666C26.2498 24.1666 26.6665 23.3333 26.6665 23.3333" fill="#6290FF"/>
<path d="M11.6665 27.4999H28.3332Z" fill="#6290FF"/>
<path d="M15.8332 16.6666V19.1666Z" fill="#6290FF"/>
<path d="M19.9998 16.6666V19.1666Z" fill="#6290FF"/>
<path d="M24.1665 16.6666V19.1666Z" fill="#6290FF"/>
<path d="M15.8332 13.3333H15.8415Z" fill="#6290FF"/>
<path d="M19.9998 13.3333H20.0082Z" fill="#6290FF"/>
<path d="M24.1665 13.3333H24.1748Z" fill="#6290FF"/>
<path d="M26.6665 27.4999V20.8333C26.6665 20.3912 26.4909 19.9673 26.1783 19.6547C25.8658 19.3422 25.4419 19.1666 24.9998 19.1666H14.9998C14.5578 19.1666 14.1339 19.3422 13.8213 19.6547C13.5088 19.9673 13.3332 20.3912 13.3332 20.8333V27.4999M13.3332 23.3333C13.3332 23.3333 13.7498 22.4999 14.9998 22.4999C16.2498 22.4999 17.0832 24.1666 18.3332 24.1666C19.5832 24.1666 20.4165 22.4999 21.6665 22.4999C22.9165 22.4999 23.7498 24.1666 24.9998 24.1666C26.2498 24.1666 26.6665 23.3333 26.6665 23.3333M11.6665 27.4999H28.3332M15.8332 16.6666V19.1666M19.9998 16.6666V19.1666M24.1665 16.6666V19.1666M15.8332 13.3333H15.8415M19.9998 13.3333H20.0082M24.1665 13.3333H24.1748" stroke="#1227C1" stroke-linecap="round" stroke-linejoin="round"/>
</svg>
