<svg width="40" height="40" viewBox="0 0 40 40" fill="none" xmlns="http://www.w3.org/2000/svg">
<circle cx="20" cy="20" r="19.5" fill="#B9D6FF" stroke="#8EBAFF"/>
<path d="M28.3327 15.8335L20.8402 20.606C20.5859 20.7537 20.2971 20.8315 20.0031 20.8315C19.7091 20.8315 19.4203 20.7537 19.166 20.606L11.666 15.8335" fill="#6290FF"/>
<path d="M26.666 13.3335H13.3327C12.4122 13.3335 11.666 14.0797 11.666 15.0002V25.0002C11.666 25.9206 12.4122 26.6668 13.3327 26.6668H26.666C27.5865 26.6668 28.3327 25.9206 28.3327 25.0002V15.0002C28.3327 14.0797 27.5865 13.3335 26.666 13.3335Z" fill="#6290FF"/>
<path d="M28.3327 15.8335L20.8402 20.606C20.5859 20.7537 20.2971 20.8315 20.0031 20.8315C19.7091 20.8315 19.4203 20.7537 19.166 20.606L11.666 15.8335M13.3327 13.3335H26.666C27.5865 13.3335 28.3327 14.0797 28.3327 15.0002V25.0002C28.3327 25.9206 27.5865 26.6668 26.666 26.6668H13.3327C12.4122 26.6668 11.666 25.9206 11.666 25.0002V15.0002C11.666 14.0797 12.4122 13.3335 13.3327 13.3335Z" stroke="#1227C1" stroke-linecap="round" stroke-linejoin="round"/>
</svg>
