<svg width="40" height="40" viewBox="0 0 40 40" fill="none" xmlns="http://www.w3.org/2000/svg">
<circle cx="20" cy="20" r="19.5" fill="#B9D6FF" stroke="#8EBAFF"/>
<path d="M23.3335 12.5H27.5002V16.6667" fill="#6290FF"/>
<path d="M27.5002 12.5L21.8752 18.125Z" fill="#6290FF"/>
<path d="M18.3335 26.6667C21.0949 26.6667 23.3335 24.4281 23.3335 21.6667C23.3335 18.9052 21.0949 16.6667 18.3335 16.6667C15.5721 16.6667 13.3335 18.9052 13.3335 21.6667C13.3335 24.4281 15.5721 26.6667 18.3335 26.6667Z" fill="#6290FF"/>
<path d="M23.3335 12.5H27.5002M27.5002 12.5V16.6667M27.5002 12.5L21.8752 18.125M23.3335 21.6667C23.3335 24.4281 21.0949 26.6667 18.3335 26.6667C15.5721 26.6667 13.3335 24.4281 13.3335 21.6667C13.3335 18.9052 15.5721 16.6667 18.3335 16.6667C21.0949 16.6667 23.3335 18.9052 23.3335 21.6667Z" stroke="#1227C1" stroke-linecap="round" stroke-linejoin="round"/>
</svg>
