<svg width="40" height="40" viewBox="0 0 40 40" fill="none" xmlns="http://www.w3.org/2000/svg">
<circle cx="20" cy="20" r="19.5" fill="#B9D6FF" stroke="#8EBAFF"/>
<path d="M13.3335 28.3334V13.3334C13.3335 13.204 13.3636 13.0764 13.4215 12.9607C13.4793 12.845 13.5633 12.7444 13.6668 12.6667C14.5323 12.0176 15.585 11.6667 16.6668 11.6667C19.1668 11.6667 20.8335 13.3334 22.7777 13.3334C23.8888 13.3334 24.7407 13.1112 25.3335 12.6667C25.4573 12.5739 25.6045 12.5173 25.7587 12.5034C25.9128 12.4896 26.0678 12.5188 26.2062 12.5881C26.3446 12.6573 26.461 12.7637 26.5424 12.8953C26.6237 13.027 26.6668 13.1787 26.6668 13.3334V21.6667C26.6668 21.7961 26.6367 21.9237 26.5789 22.0394C26.521 22.1551 26.437 22.2558 26.3335 22.3334C25.468 22.9825 24.4153 23.3334 23.3335 23.3334C20.8335 23.3334 19.1668 21.6667 16.6668 21.6667C15.4369 21.6668 14.2502 22.1201 13.3335 22.9401" fill="#6290FF"/>
<path d="M13.3335 28.3334V13.3334C13.3335 13.204 13.3636 13.0764 13.4215 12.9607C13.4793 12.845 13.5633 12.7444 13.6668 12.6667C14.5323 12.0176 15.585 11.6667 16.6668 11.6667C19.1668 11.6667 20.8335 13.3334 22.7777 13.3334C23.8888 13.3334 24.7407 13.1112 25.3335 12.6667C25.4573 12.5739 25.6045 12.5173 25.7587 12.5034C25.9128 12.4896 26.0678 12.5188 26.2062 12.5881C26.3446 12.6573 26.461 12.7637 26.5424 12.8953C26.6237 13.027 26.6668 13.1787 26.6668 13.3334V21.6667C26.6668 21.7961 26.6367 21.9237 26.5789 22.0394C26.521 22.1551 26.437 22.2558 26.3335 22.3334C25.468 22.9825 24.4153 23.3334 23.3335 23.3334C20.8335 23.3334 19.1668 21.6667 16.6668 21.6667C15.4369 21.6668 14.2502 22.1201 13.3335 22.9401" stroke="#1227C1" stroke-linecap="round" stroke-linejoin="round"/>
</svg>
