<svg width="40" height="40" viewBox="0 0 40 40" fill="none" xmlns="http://www.w3.org/2000/svg">
<circle cx="20" cy="20" r="19.5" fill="#B9D6FF" stroke="#8EBAFF"/>
<path d="M21.5265 23.8067C21.6986 23.8858 21.8925 23.9038 22.0762 23.8579C22.26 23.8121 22.4226 23.7049 22.5373 23.5542L22.8332 23.1667C22.9884 22.9598 23.1897 22.7917 23.4211 22.676C23.6526 22.5603 23.9078 22.5001 24.1665 22.5001H26.6665C27.1085 22.5001 27.5325 22.6757 27.845 22.9882C28.1576 23.3008 28.3332 23.7247 28.3332 24.1667V26.6667C28.3332 27.1088 28.1576 27.5327 27.845 27.8453C27.5325 28.1578 27.1085 28.3334 26.6665 28.3334C22.6883 28.3334 18.8729 26.7531 16.0599 23.94C13.2469 21.127 11.6665 17.3117 11.6665 13.3334C11.6665 12.8914 11.8421 12.4675 12.1547 12.1549C12.4672 11.8423 12.8911 11.6667 13.3332 11.6667H15.8332C16.2752 11.6667 16.6991 11.8423 17.0117 12.1549C17.3242 12.4675 17.4998 12.8914 17.4998 13.3334V15.8334C17.4998 16.0922 17.4396 16.3473 17.3239 16.5788C17.2082 16.8102 17.0402 17.0115 16.8332 17.1667L16.4432 17.4592C16.2902 17.5761 16.1824 17.7422 16.138 17.9295C16.0936 18.1168 16.1155 18.3137 16.1998 18.4867C17.3387 20.8 19.2119 22.6707 21.5265 23.8067Z" fill="#6290FF" stroke="#1227C1" stroke-linecap="round" stroke-linejoin="round"/>
</svg>
